<mxfile host="app.diagrams.net" modified="2023-12-14T03:17:53.018Z" agent="Mozilla/5.0 (Macintosh; Intel Mac OS X 10_15_7) AppleWebKit/537.36 (KHTML, like Gecko) Chrome/119.0.0.0 Safari/537.36" version="22.1.8" etag="-_q_h1e2f8bWj0B-17bZ" type="github">
  <diagram name="Page-1" id="mlTP5GkgayAPcvq2FMzZ">
    <mxGraphModel>
      <root>
        <mxCell id="0" />
        <mxCell id="1" parent="0" />
      </root>
    </mxGraphModel>
  </diagram>
</mxfile>
